Motion_pl16
version=1
nRows=10
nColumns=43
inDegrees=yes
endheader
time	pelvis_tilt	pelvis_list	pelvis_rotation	pelvis_tx	pelvis_ty	pelvis_tz	hip_flexion_r	hip_adduction_r	hip_rotation_r	knee_angle_r	ankle_angle_r	subtalar_angle_r	mtp_angle_r	hip_flexion_l	hip_adduction_l	hip_rotation_l	knee_angle_l	ankle_angle_l	subtalar_angle_l	mtp_angle_l	lumbar_extension	lumbar_bending	lumbar_rotation	neck_flexion	neck_lateral_bending	neck_rotation	arm_flex_r	arm_add_r	arm_rot_r	elbow_flex_r	pro_sup_r	wrist_flex_r	wrist_dev_r	hand_finger_flex_r	arm_flex_l	arm_add_l	arm_rot_l	elbow_flex_l	pro_sup_l	wrist_flex_l	wrist_dev_l	hand_finger_flex_l
      0.00250000	      5.13143337	    -13.78194497	     89.09314346	      0.03946022	      2.04502784	      1.93414534	     58.46123826	      4.43597199	     -4.54313897	    -83.65310831	     12.29222987	     -3.56879874	      7.68444123	     59.78003401	     -8.18356412	      0.86626872	    -88.12027154	     12.87755533	      1.32278758	      3.38825407	    -44.27965135	      3.06068475	      2.49732280	     17.67940471	     -2.09234445	      3.87307769	     -0.78726006	    -16.15837819	    -15.26720105	     53.32953342	    115.78756861	      3.94022172	     -5.72824483	     10.47673907	     -5.62964399	    -16.51706261	    -12.82237446	     57.51938650	    110.12921216	      1.06458939	     -1.17881804	     14.93278577
      0.00500000	      5.22316146	    -13.97125551	     89.22668296	      0.03937818	      2.04225737	      1.93451153	     58.96390175	      4.39316162	     -4.73244618	    -84.09660936	     12.01802361	     -4.10923220	     10.20323019	     60.38829038	     -8.11313964	      1.09317972	    -88.66215039	     12.59953996	      1.06301776	      6.24082114	    -44.29171818	      3.16493639	      2.32174700	     17.99131775	     -1.91894036	      4.26922358	     -0.72994064	    -16.64370588	    -13.66684383	     53.47645504	    112.41995079	      1.78292280	     -5.14723335	     12.25242329	     -5.73807903	    -16.16034555	    -13.57712294	     57.66476554	    111.97435140	     -1.43964357	     -1.89849650	     22.27978056
      0.00750000	      5.20172035	    -13.88252745	     89.19668442	      0.03938400	      2.04017793	      1.93451185	     59.13702295	      4.37310226	     -4.74724550	    -84.56308271	     12.09813997	     -4.17998810	     10.22157953	     60.55462206	     -8.08084154	      1.16561271	    -89.11889996	     12.61638949	      1.05870055	      6.27083409	    -44.55538094	      3.10607881	      2.32415481	     18.03686583	     -1.90677075	      4.26043432	     -0.59922173	    -16.66394958	    -13.68535288	     53.54595374	    112.44543472	      1.80344410	     -5.17906283	     12.27932578	     -5.64934253	    -16.19163668	    -13.56638477	     57.66620553	    111.94850728	     -1.44261377	     -1.89067833	     22.29513804
      0.01000000	      5.18545034	    -13.81404671	     89.18608033	      0.03939677	      2.03794319	      1.93453686	     59.33839672	      4.34972371	     -4.76563398	    -85.04395317	     12.20451475	     -4.25951896	     10.24209342	     60.77189477	     -8.06325108	      1.22722495	    -89.61889794	     12.65594550	      1.06182976	      6.30656204	    -44.80553422	      3.06091315	      2.31517282	     18.13518332	     -1.87998477	      4.24705041	     -0.51553776	    -16.69419454	    -13.71061859	     53.69438272	    112.46554522	      1.83673386	     -5.23907166	     12.31922136	     -5.60121052	    -16.24860366	    -13.56080012	     57.72579753	    111.91752868	     -1.42968707	     -1.88671937	     22.32796693
      0.01250000	      5.18816453	    -13.95903597	     89.24970097	      0.03942117	      2.03513046	      1.93491283	     59.80040117	      4.30333295	     -4.83550722	    -85.53803319	     12.46589383	     -4.43083959	     10.28628034	     61.26737027	     -7.99413083	      1.34371500	    -90.13517513	     12.81242739	      1.14504671	      6.44319914	    -44.88787838	      3.06193365	      2.31119449	     18.47647955	     -1.79869445	      4.21696617	     -0.63687248	    -16.75664217	    -13.81154297	     54.18995603	    112.52715990	      1.98337565	     -5.43023739	     12.49690934	     -5.70430731	    -16.36073185	    -13.53482721	     58.11906752	    111.78628875	     -1.32913235	     -1.88647996	     22.50459706
      0.01500000	      5.18483532	    -13.89782937	     89.23614743	      0.03943423	      2.03295772	      1.93496663	     59.99624201	      4.28487532	     -4.86349889	    -85.97858605	     12.50741695	     -4.45659995	     10.29570868	     61.48603627	     -7.97984739	      1.42396935	    -90.62703432	     12.85402916	      1.15404641	      6.47540480	    -45.13843908	      3.02726280	      2.31473134	     18.55249078	     -1.78820943	      4.20767984	     -0.47049484	    -16.76333877	    -13.86069369	     54.24803787	    112.53649260	      1.98959723	     -5.44811641	     12.52544323	     -5.58799480	    -16.39616607	    -13.55532263	     58.09093889	    111.76597128	     -1.32455158	     -1.86174737	     22.53849788
      0.01750000	      5.18886657	    -13.85090831	     89.24037454	      0.03943645	      2.03062348	      1.93504791	     60.22455825	      4.26506905	     -4.89814447	    -86.45520899	     12.59279309	     -4.49559220	     10.30890168	     61.73699771	     -7.96032319	      1.50706964	    -91.14639850	     12.91913147	      1.16909730	      6.51205830	    -45.37972398	      3.00884168	      2.32428744	     18.67218486	     -1.76555466	      4.19777072	     -0.35881428	    -16.78247472	    -13.91749013	     54.39376821	    112.53729449	      2.00571201	     -5.48909646	     12.56993716	     -5.51826462	    -16.43988095	    -13.58619919	     58.14944202	    111.72958449	     -1.30148575	     -1.86077341	     22.59206021
      0.02000000	      5.26729295	    -14.07311651	     89.36245574	      0.03941646	      2.02759035	      1.93555539	     60.77439341	      4.21798163	     -5.05201219	    -86.94032695	     12.86194676	     -4.56163324	     10.33474204	     62.36161409	     -7.89142179	      1.72662743	    -91.69764270	     13.17165791	      1.30907916	      6.66831523	    -45.40322571	      3.10304880	      2.35249480	     19.09321701	     -1.69311688	      4.17438473	     -0.48281927	    -16.80786965	    -14.11472844	     54.94603997	    112.53249355	      2.11160082	     -5.61755639	     12.80913429	     -5.62257941	    -16.48201872	    -13.69033138	     58.56417643	    111.53458201	     -1.14333719	     -1.90293991	     22.87546663
      0.02250000	      5.27395619	    -14.00907825	     89.35920451	      0.03941159	      2.02535572	      1.93562280	     60.96610614	      4.19984397	     -5.08269194	    -87.38721588	     12.90854188	     -4.57685541	     10.34047976	     62.58155544	     -7.87554734	      1.81045575	    -92.20352321	     13.21428018	      1.32630279	      6.70000117	    -45.65950437	      3.08427189	      2.37006786	     19.15741761	     -1.68928967	      4.16685292	     -0.29725616	    -16.81246007	    -14.16191625	     54.98943532	    112.53243262	      2.10772073	     -5.61717713	     12.84600776	     -5.48080487	    -16.50998110	    -13.73221852	     58.52690646	    111.50514271	     -1.13644833	     -1.88692594	     22.92062307
      0.02500000	      5.28850390	    -13.95899409	     89.36581896	      0.03940168	      2.02297939	      1.93570896	     61.18902650	      4.18108148	     -5.12386937	    -87.86809407	     13.00309639	     -4.60263403	     10.35097846	     62.82999024	     -7.85888755	      1.90134285	    -92.72974917	     13.28226132	      1.35061537	      6.73663822	    -45.90592982	      3.07383597	      2.39261762	     19.27262386	     -1.67484237	      4.15656860	     -0.16570772	    -16.82373140	    -14.21635088	     55.12103241	    112.51948711	      2.10874422	     -5.64251918	     12.89959438	     -5.39016162	    -16.53442203	    -13.78955781	     58.57626346	    111.44596766	     -1.11175598	     -1.89795683	     22.98641490
